Coordinates
version=1
nRows=4
nColumns=107
inDegrees=yes

Units are S.I. units (second, meters, Newtons, ...)
If the header above contains a line with 'inDegrees', this indicates whether rotational values are in degrees (yes) or radians (no).

endheader
time	sternoclavicular_r2	sternoclavicular_r3	unrotscap_r3	unrotscap_r2	acromioclavicular_r2	acromioclavicular_r3	acromioclavicular_r1	unrothum_r1	unrothum_r3	unrothum_r2	elv_angle	shoulder_elv	shoulder1_r2	shoulder_rot	elbow_flexion	pro_sup	deviation	flexion	proximal_distal_r1	proximal_distal_r3	cmc_flexion	cmc_abduction	mp_flexion	ip_flexion	mcp2_flexion	mcp2_abduction	pm2_flexion	md2_flexion	mcp3_flexion	mcp3_abduction	pm3_flexion	md3_flexion	mcp4_flexion	mcp4_abduction	pm4_flexion	md4_flexion	mcp5_flexion	mcp5_abduction	pm5_flexion	md5_flexion	bicpt_tx	bicpt_ty	bicpt_tz	bicpt2_tx	bicpt2_ty	bicpt2_tz	ptpt_tx	ptpt_ty	ptpt_tz	FCUpt_tx	FCUpt_ty	FCUpt_tz	EDCpt_tx	EDCpt_ty	EDCpt_tz	APLpt_tx	APLpt_ty	APLpt_tz	FPLpt_tx	FPLpt_ty	FPLpt_tz	FPLpt2_tx	FPLpt2_ty	FPLpt2_tz	PEC1pt2_tx	PEC1pt2_ty	PEC1pt2_tz	PEC1pt3_tx	PEC1pt3_ty	PEC1pt3_tz	PEC2pt2_tx	PEC2pt2_ty	PEC2pt2_tz	PEC2pt3_tx	PEC2pt3_ty	PEC2pt3_tz	PEC3pt2_tx	PEC3pt2_ty	PEC3pt2_tz	PEC3pt3_tx	PEC3pt3_ty	PEC3pt3_tz	DELT2pt2a_tx	DELT2pt2a_ty	DELT2pt2a_tz	DELT2pt2_tx	DELT2pt2_ty	DELT2pt2_tz	LAT1pt2_tx	LAT1pt2_ty	LAT1pt2_tz	LAT1pt3_tx	LAT1pt3_ty	LAT1pt3_tz	LAT2pt2_tx	LAT2pt2_ty	LAT2pt2_tz	LAT2pt3_tx	LAT2pt3_ty	LAT2pt3_tz	LAT3pt2_tx	LAT3pt2_ty	LAT3pt2_tz	LAT3pt3_tx	LAT3pt3_ty	LAT3pt3_tz
      0.46666667	     -0.31004847	      0.13132190	     -0.13132190	      0.31004847	     -0.06277851	      0.50735382	      0.22805205	     -0.22805205	     -0.50735382	      0.06277851	    101.65367308	     73.40673174	     -1.77419129	    -40.04109071	     32.62312985	     84.20211243	      0.34728499	     -0.49721728	      0.37259756	     -0.24860864	     42.37198413	    -13.72278312	      6.06249015	      8.06376841	     97.32754753	     12.93568448	     80.27921397	     73.59711889	     93.99374032	      1.06282698	     82.77555191	     54.57104777	     92.47797325	    -13.42969366	     93.20381105	     42.65322412	     91.30187351	    -14.21594658	     98.29931100	      5.29632945	      0.00097907	     -0.03133911	     -0.00490227	      0.01442206	     -0.01906223	     -0.00138166	      0.00132841	     -0.06892298	     -0.00683293	      0.01253197	     -0.18229816	      0.00003549	     -0.01010423	      0.00347985	     -0.00070036	      0.00030169	      0.00012067	      0.00060337	      0.00038616	      0.00115847	      0.00065164	     -0.00000664	     -0.00006186	     -0.00007424	      0.00240611	      0.00844178	      0.00587254	     -0.00787084	      0.01900420	     -0.01802545	      0.00240611	      0.00844178	      0.00587254	      0.00053016	      0.01761763	     -0.00925741	      0.00384205	      0.00469437	      0.01570301	      0.00000000	      0.00720295	      0.00000000	     -0.00689208	     -0.03185039	     -0.00593573	      0.02265498	     -0.00111235	     -0.01293954	     -0.00085641	      0.01435511	     -0.00587254	      0.00236533	      0.02071703	     -0.01712825	     -0.00575020	      0.01243837	     -0.00526082	     -0.01198978	      0.02626332	     -0.02940350	     -0.02251142	      0.01390651	     -0.00705521	     -0.01492605	      0.03034147	     -0.03674418
      0.50000000	     -0.31003978	      0.13131822	     -0.13131822	      0.31003978	     -0.06277675	      0.50733961	      0.22804566	     -0.22804566	     -0.50733961	      0.06277675	    101.66050115	     73.40467448	     -1.77431046	    -40.03797538	     32.62692798	     84.20221195	      0.34728340	     -0.49722259	      0.37259580	     -0.24861129	     42.37227165	    -13.72275108	      6.06274621	      8.06383180	     97.32760666	     12.93575488	     80.27919982	     73.59713276	     93.99379510	      1.06286980	     82.77555653	     54.57103266	     92.47822095	    -13.42966355	     93.20382710	     42.65318147	     91.30164514	    -14.21595713	     98.29930950	      5.29634313	      0.00097920	     -0.03133954	     -0.00490234	      0.01442204	     -0.01906327	     -0.00138164	      0.00132841	     -0.06892299	     -0.00683294	      0.01253198	     -0.18229816	      0.00003550	     -0.01010424	      0.00347986	     -0.00070037	      0.00030168	      0.00012067	      0.00060337	      0.00038616	      0.00115847	      0.00065164	     -0.00000664	     -0.00006186	     -0.00007423	      0.00240604	      0.00844154	      0.00587238	     -0.00787062	      0.01900367	     -0.01802494	      0.00240604	      0.00844154	      0.00587238	      0.00053015	      0.01761714	     -0.00925715	      0.00384197	      0.00469424	      0.01570281	      0.00000000	      0.00720254	      0.00000000	     -0.00689189	     -0.03184950	     -0.00593539	      0.02265397	     -0.00111224	     -0.01293773	     -0.00085639	      0.01435470	     -0.00587238	      0.00236526	      0.02071645	     -0.01712777	     -0.00575004	      0.01243802	     -0.00526067	     -0.01198944	      0.02626258	     -0.02940268	     -0.02251079	      0.01390612	     -0.00705501	     -0.01492563	      0.03034062	     -0.03674315
      0.53333333	     -0.30966854	      0.13116098	     -0.13116098	      0.30966854	     -0.06270158	      0.50673211	      0.22777260	     -0.22777260	     -0.50673211	      0.06270158	    101.81944330	     73.31677902	     -1.77708453	    -40.63963290	     32.61083776	     84.44890262	      0.33758520	     -0.52071694	      0.36487073	     -0.26035847	     42.37927830	    -13.69058882	      6.26586024	      8.02075388	     97.50556269	     12.96760410	     80.00195919	     73.93676702	     94.04556400	      1.09735590	     82.77562665	     54.13007440	     92.58630591	    -13.43003482	     93.09024313	     42.55593929	     91.32732176	    -14.21672339	     98.09691523	      5.33499303	      0.00097867	     -0.03133770	     -0.00490205	      0.01439749	     -0.01905889	     -0.00133998	      0.00131018	     -0.06893477	     -0.00685281	      0.01256019	     -0.18228992	      0.00004198	     -0.01013384	      0.00349327	     -0.00070806	      0.00030571	      0.00012228	      0.00061141	      0.00039130	      0.00117391	      0.00066032	     -0.00000662	     -0.00006170	     -0.00007404	      0.00240316	      0.00843144	      0.00586535	     -0.00786119	      0.01898092	     -0.01800336	      0.00240316	      0.00843144	      0.00586535	      0.00052951	      0.01759604	     -0.00924607	      0.00383856	      0.00468861	      0.01569407	      0.00000000	      0.00718520	      0.00000000	     -0.00688364	     -0.03181136	     -0.00592098	      0.02283749	     -0.00113420	     -0.01329462	     -0.00085536	      0.01433752	     -0.00586535	      0.00236243	      0.02069164	     -0.01710726	     -0.00574315	      0.01242313	     -0.00525437	     -0.01197508	      0.02623114	     -0.02936747	     -0.02248383	      0.01388947	     -0.00704656	     -0.01490776	      0.03030429	     -0.03669915
      0.56666667	     -0.30991734	      0.13126636	     -0.13126636	      0.30991734	     -0.06275196	      0.50713924	      0.22795560	     -0.22795560	     -0.50713924	      0.06275196	    101.61640948	     73.37568482	     -1.77354092	    -39.99371728	     32.75385310	     84.22706516	      0.34761604	     -0.49238745	      0.37285823	     -0.24619372	     42.37045644	    -13.74489826	      6.10435048	      8.24925865	     97.15393909	     12.96429936	     80.41411145	     73.50005129	     93.85342566	      1.15830883	     82.90753735	     54.04314532	     92.32871209	    -13.41549111	     93.30064973	     42.43618897	     90.95115866	    -14.21529573	     98.36884987	      5.30472709	      0.00098340	     -0.03135409	     -0.00490469	      0.01441958	     -0.01909774	     -0.00137745	      0.00132657	     -0.06892417	     -0.00683494	      0.01253482	     -0.18229733	      0.00003615	     -0.01010722	      0.00348121	     -0.00070114	      0.00030074	      0.00012030	      0.00060149	      0.00038495	      0.00115486	      0.00064961	     -0.00000664	     -0.00006190	     -0.00007428	      0.00240509	      0.00843821	      0.00587006	     -0.00786751	      0.01899617	     -0.01801782	      0.00240509	      0.00843821	      0.00587006	      0.00052994	      0.01761018	     -0.00925350	      0.00384085	      0.00469238	      0.01569993	      0.00000000	      0.00719682	      0.00000000	     -0.00688917	     -0.03183692	     -0.00593063	      0.02264032	     -0.00111063	     -0.01291158	     -0.00085605	      0.01434903	     -0.00587006	      0.00236433	      0.02070827	     -0.01712101	     -0.00574777	      0.01243311	     -0.00525860	     -0.01198471	      0.02625221	     -0.02939106	     -0.02250190	      0.01390063	     -0.00705222	     -0.01491974	      0.03032864	     -0.03672864
